<svg width="134" height="24" viewBox="0 0 134 24" fill="none" xmlns="http://www.w3.org/2000/svg">
<g clip-path="url(#clip0_9_23296)">
<path d="M0.0131836 3.4133V8.15097C0.0131836 9.59392 1.7714 10.3635 2.84587 9.35343L7.974 4.61575C9.0973 3.58164 8.36471 1.75391 6.82627 1.75391H1.69814C0.770194 1.75391 0.0131836 2.49943 0.0131836 3.4133Z" fill="white"/>
<path d="M24.2862 1.75391H19.158C17.644 1.75391 16.887 3.58164 18.0103 4.61575L23.1385 9.35343C24.2129 10.3394 25.9711 9.59392 25.9711 8.15097V3.4133C25.9711 2.49943 25.2141 1.75391 24.2862 1.75391Z" fill="white"/>
<path d="M14.1522 13.3215L23.1386 21.6425C24.2131 22.6285 25.9713 21.883 25.9713 20.4401V15.6543C25.9713 15.1974 25.7759 14.7645 25.4341 14.4518L14.1522 3.99047C13.4928 3.38924 12.4916 3.38924 11.8323 3.99047L0.550416 14.4518C0.208541 14.7645 0.0131836 15.1974 0.0131836 15.6543V20.4401C0.0131836 21.883 1.7714 22.6526 2.84587 21.6425L11.8323 13.3215C12.4916 12.7203 13.4928 12.7203 14.1522 13.3215Z" fill="white"/>
</g>
<path d="M36.2864 19L33.3705 8.2851H36.3771L38.0373 15.4842H38.135L39.865 8.2851H42.8158L44.5737 15.4423H44.6644L46.2967 8.2851H49.2963L46.3874 19H43.2413L41.3997 12.2613H41.2671L39.4255 19H36.2864ZM53.8533 12.8055V19H50.8816V4.71347H53.7696V10.1756H53.8952C54.137 9.54308 54.5276 9.04779 55.0671 8.6897C55.6066 8.32696 56.2832 8.14559 57.0971 8.14559C57.8412 8.14559 58.4899 8.30836 59.0433 8.63389C59.6014 8.95478 60.0339 9.41751 60.3408 10.0221C60.6524 10.622 60.8059 11.3405 60.8013 12.1776V19H57.8295V12.7078C57.8342 12.0474 57.6668 11.5335 57.3273 11.1661C56.9924 10.7987 56.5227 10.615 55.9182 10.615C55.5136 10.615 55.1555 10.7011 54.8439 10.8731C54.5369 11.0452 54.2951 11.2963 54.1184 11.6265C53.9463 11.9521 53.858 12.345 53.8533 12.8055ZM63.1399 19V8.2851H66.1116V19H63.1399ZM64.6327 6.90389C64.1909 6.90389 63.8119 6.75739 63.4957 6.46441C63.1841 6.16677 63.0283 5.811 63.0283 5.3971C63.0283 4.98785 63.1841 4.63674 63.4957 4.34375C63.8119 4.04611 64.1909 3.8973 64.6327 3.8973C65.0745 3.8973 65.4512 4.04611 65.7628 4.34375C66.0791 4.63674 66.2372 4.98785 66.2372 5.3971C66.2372 5.811 66.0791 6.16677 65.7628 6.46441C65.4512 6.75739 65.0745 6.90389 64.6327 6.90389ZM74.1914 8.2851V10.5174H67.7387V8.2851H74.1914ZM69.2037 5.71799H72.1754V15.7074C72.1754 15.9818 72.2172 16.1957 72.3009 16.3492C72.3846 16.498 72.5009 16.6026 72.6497 16.6631C72.8032 16.7235 72.9799 16.7538 73.1799 16.7538C73.3194 16.7538 73.4589 16.7422 73.5984 16.7189C73.738 16.691 73.8449 16.6701 73.9193 16.6561L74.3867 18.8675C74.2379 18.914 74.0286 18.9674 73.7589 19.0279C73.4892 19.093 73.1613 19.1325 72.7753 19.1465C72.0591 19.1744 71.4313 19.0791 70.8918 18.8605C70.357 18.6419 69.9408 18.3024 69.6431 17.842C69.3455 17.3816 69.199 16.8003 69.2037 16.098V5.71799ZM80.8952 19.2093C79.793 19.2093 78.8443 18.986 78.049 18.5396C77.2584 18.0885 76.6492 17.4514 76.2214 16.6282C75.7935 15.8004 75.5796 14.8215 75.5796 13.6914C75.5796 12.5892 75.7935 11.6219 76.2214 10.7894C76.6492 9.95698 77.2515 9.30823 78.0281 8.84317C78.8094 8.37811 79.7256 8.14559 80.7766 8.14559C81.4835 8.14559 82.1415 8.25952 82.7507 8.4874C83.3646 8.71063 83.8994 9.04779 84.3552 9.4989C84.8156 9.95 85.1737 10.5174 85.4295 11.201C85.6853 11.88 85.8131 12.6752 85.8131 13.5867V14.4029H76.7655V12.5613H83.0158C83.0158 12.1334 82.9228 11.7544 82.7368 11.4242C82.5508 11.094 82.2927 10.8359 81.9625 10.6499C81.6369 10.4592 81.2579 10.3639 80.8254 10.3639C80.3743 10.3639 79.9744 10.4685 79.6256 10.6778C79.2814 10.8824 79.0117 11.1592 78.8164 11.5079C78.621 11.8521 78.5211 12.2358 78.5164 12.659V14.4099C78.5164 14.9401 78.6141 15.3981 78.8094 15.7841C79.0094 16.1701 79.2907 16.4678 79.6535 16.677C80.0162 16.8863 80.4464 16.991 80.944 16.991C81.2742 16.991 81.5765 16.9445 81.8509 16.8514C82.1252 16.7584 82.3601 16.6189 82.5554 16.4329C82.7507 16.2469 82.8996 16.019 83.0019 15.7493L85.7504 15.9306C85.6108 16.591 85.3248 17.1677 84.8923 17.6606C84.4645 18.1489 83.9111 18.5303 83.2321 18.8047C82.5577 19.0744 81.7788 19.2093 80.8952 19.2093ZM87.7524 23.0181V8.2851H90.6823V10.0849H90.8148C90.945 9.79654 91.1334 9.50355 91.3799 9.20591C91.631 8.90363 91.9565 8.6525 92.3565 8.45252C92.7611 8.2479 93.2633 8.14559 93.8633 8.14559C94.6446 8.14559 95.3654 8.35021 96.0258 8.75946C96.6862 9.16406 97.214 9.77561 97.6093 10.5941C98.0046 11.408 98.2022 12.4288 98.2022 13.6565C98.2022 14.8517 98.0092 15.8609 97.6232 16.684C97.2419 17.5025 96.721 18.1234 96.0607 18.5466C95.4049 18.9651 94.6701 19.1744 93.8563 19.1744C93.2796 19.1744 92.789 19.0791 92.3844 18.8884C91.9844 18.6977 91.6566 18.4582 91.4008 18.1699C91.145 17.8769 90.9497 17.5816 90.8148 17.2839H90.7241V23.0181H87.7524ZM90.6614 13.6426C90.6614 14.2797 90.7497 14.8354 90.9264 15.3098C91.1032 15.7841 91.3589 16.1539 91.6938 16.4189C92.0286 16.6794 92.4355 16.8096 92.9146 16.8096C93.3982 16.8096 93.8075 16.677 94.1423 16.412C94.4771 16.1422 94.7306 15.7702 94.9027 15.2958C95.0794 14.8168 95.1677 14.2657 95.1677 13.6426C95.1677 13.024 95.0817 12.4799 94.9096 12.0102C94.7376 11.5405 94.4841 11.1731 94.1493 10.908C93.8144 10.6429 93.4029 10.5104 92.9146 10.5104C92.4309 10.5104 92.0216 10.6383 91.6868 10.8941C91.3566 11.1498 91.1032 11.5126 90.9264 11.9823C90.7497 12.452 90.6614 13.0054 90.6614 13.6426ZM103.239 19.2023C102.555 19.2023 101.946 19.0837 101.411 18.8465C100.876 18.6047 100.453 18.2489 100.142 17.7792C99.8346 17.3049 99.6811 16.7142 99.6811 16.0074C99.6811 15.4121 99.7904 14.9122 100.009 14.5076C100.228 14.103 100.525 13.7774 100.902 13.5309C101.279 13.2845 101.706 13.0984 102.185 12.9729C102.669 12.8473 103.176 12.7589 103.706 12.7078C104.329 12.6427 104.832 12.5822 105.213 12.5264C105.594 12.466 105.871 12.3776 106.043 12.2613C106.215 12.1451 106.301 11.973 106.301 11.7451V11.7033C106.301 11.2615 106.162 10.9196 105.883 10.6778C105.608 10.436 105.218 10.3151 104.711 10.3151C104.176 10.3151 103.75 10.4337 103.434 10.6708C103.118 10.9034 102.909 11.1964 102.806 11.5498L100.058 11.3266C100.197 10.6755 100.472 10.1128 100.881 9.63842C101.29 9.15941 101.818 8.79201 102.464 8.53623C103.116 8.2758 103.869 8.14559 104.725 8.14559C105.32 8.14559 105.89 8.21534 106.434 8.35486C106.983 8.49438 107.468 8.71063 107.892 9.00361C108.32 9.2966 108.657 9.6733 108.903 10.1337C109.15 10.5895 109.273 11.1359 109.273 11.773V19H106.455V17.5141H106.371C106.199 17.849 105.969 18.1443 105.68 18.4001C105.392 18.6512 105.046 18.8489 104.641 18.993C104.236 19.1325 103.769 19.2023 103.239 19.2023ZM104.09 17.1514C104.527 17.1514 104.913 17.0654 105.248 16.8933C105.583 16.7166 105.845 16.4794 106.036 16.1818C106.227 15.8841 106.322 15.547 106.322 15.1703V14.0332C106.229 14.0937 106.101 14.1495 105.938 14.2006C105.78 14.2471 105.601 14.2913 105.401 14.3332C105.201 14.3704 105.001 14.4052 104.801 14.4378C104.601 14.4657 104.42 14.4913 104.257 14.5145C103.908 14.5657 103.604 14.6471 103.343 14.7587C103.083 14.8703 102.881 15.0214 102.737 15.2121C102.592 15.3981 102.52 15.6307 102.52 15.9097C102.52 16.3143 102.667 16.6236 102.96 16.8375C103.257 17.0468 103.634 17.1514 104.09 17.1514ZM116.42 19.2093C115.322 19.2093 114.378 18.9767 113.587 18.5117C112.802 18.042 112.197 17.3909 111.774 16.5585C111.355 15.726 111.146 14.768 111.146 13.6844C111.146 12.5869 111.358 11.6242 111.781 10.7964C112.209 9.96396 112.815 9.3152 113.601 8.85015C114.387 8.38044 115.322 8.14559 116.406 8.14559C117.34 8.14559 118.159 8.31533 118.861 8.65482C119.563 8.99431 120.119 9.471 120.528 10.0849C120.938 10.6987 121.163 11.4196 121.205 12.2474H118.401C118.322 11.7126 118.112 11.2824 117.773 10.9569C117.438 10.6267 116.999 10.4616 116.455 10.4616C115.994 10.4616 115.592 10.5871 115.248 10.8383C114.908 11.0847 114.643 11.4452 114.452 11.9195C114.262 12.3939 114.166 12.9682 114.166 13.6426C114.166 14.3262 114.259 14.9075 114.445 15.3865C114.636 15.8655 114.904 16.2306 115.248 16.4817C115.592 16.7329 115.994 16.8584 116.455 16.8584C116.794 16.8584 117.099 16.7887 117.368 16.6491C117.643 16.5096 117.868 16.3073 118.045 16.0422C118.226 15.7725 118.345 15.4493 118.401 15.0726H121.205C121.159 15.8911 120.935 16.6119 120.535 17.2351C120.14 17.8536 119.594 18.3373 118.896 18.6861C118.199 19.0349 117.373 19.2093 116.42 19.2093ZM127.991 19.2093C126.889 19.2093 125.94 18.986 125.145 18.5396C124.354 18.0885 123.745 17.4514 123.317 16.6282C122.889 15.8004 122.675 14.8215 122.675 13.6914C122.675 12.5892 122.889 11.6219 123.317 10.7894C123.745 9.95698 124.347 9.30823 125.124 8.84317C125.905 8.37811 126.821 8.14559 127.872 8.14559C128.579 8.14559 129.237 8.25952 129.846 8.4874C130.46 8.71063 130.995 9.04779 131.451 9.4989C131.911 9.95 132.269 10.5174 132.525 11.201C132.781 11.88 132.909 12.6752 132.909 13.5867V14.4029H123.861V12.5613H130.112C130.112 12.1334 130.018 11.7544 129.832 11.4242C129.646 11.094 129.388 10.8359 129.058 10.6499C128.733 10.4592 128.354 10.3639 127.921 10.3639C127.47 10.3639 127.07 10.4685 126.721 10.6778C126.377 10.8824 126.107 11.1592 125.912 11.5079C125.717 11.8521 125.617 12.2358 125.612 12.659V14.4099C125.612 14.9401 125.71 15.3981 125.905 15.7841C126.105 16.1701 126.386 16.4678 126.749 16.677C127.112 16.8863 127.542 16.991 128.04 16.991C128.37 16.991 128.672 16.9445 128.947 16.8514C129.221 16.7584 129.456 16.6189 129.651 16.4329C129.846 16.2469 129.995 16.019 130.098 15.7493L132.846 15.9306C132.707 16.591 132.421 17.1677 131.988 17.6606C131.56 18.1489 131.007 18.5303 130.328 18.8047C129.653 19.0744 128.874 19.2093 127.991 19.2093Z" fill="white"/>
<defs>
<clipPath id="clip0_9_23296">
<rect width="25.9581" height="20.3455" fill="white" transform="translate(0.0131836 1.75391)"/>
</clipPath>
</defs>
</svg>
